<?xml version="1.0" encoding="utf-8"?>
<!-- Generator: Adobe Illustrator 19.0.0, SVG Export Plug-In . SVG Version: 6.00 Build 0)  -->
<svg version="1.1" id="Layer_1" xmlns="http://www.w3.org/2000/svg" xmlns:xlink="http://www.w3.org/1999/xlink" x="0px" y="0px"
	 viewBox="0 0 960 560" style="enable-background:new 0 0 960 560;" xml:space="preserve">
<style type="text/css">
	.st0{opacity:0.77;}
	.st1{fill:#FFFFFF;}
</style>
<g id="XMLID_24_" class="st0">
	<path id="XMLID_19_" class="st1" d="M631.4,350.6L611,330.3c9-15.4,13.9-33,13.9-50.9c0-55.3-45-100.3-100.3-100.3
		c-28.9,0-56.4,12.5-75.4,34.2l-9.8,11.2l9.8,11.2c11.2,12.7,17,29,16.4,46c-0.5,15.4-6.2,29.6-16.5,41.2l-9.9,11.2l9.8,11.3
		c19.1,21.9,46.6,34.4,75.6,34.4c23.8,0,46.5-8.4,64.4-23.4l18.4,18.4c3.3,3.3,7.7,5,12,5c4.4,0,8.7-1.7,12-5
		C638.1,368,638.1,357.3,631.4,350.6z M524.6,345.7c-14.6,0-28.7-4.8-40.2-13.5c9.3-14.8,14.5-31.8,15.1-49.3
		c0.7-20.1-4.6-39.6-15-56.3c11.4-8.7,25.5-13.5,40-13.5c36.6,0,66.3,29.8,66.3,66.3c0,15.3-5.3,30.3-15.1,42.1c0,0,0,0-0.1,0.1
		C563.1,336.9,544.5,345.7,524.6,345.7z"/>
</g>
<g id="XMLID_26_">
	<path id="XMLID_4_" class="st1" d="M398.3,379.7h-54c-12.1,0-22-9.9-22-22V201c0-12.1,9.9-22,22-22h55c28.9,0,56.4,12.5,75.5,34.2
		c16.9,19.2,25.7,43.9,24.8,69.6l0,0c-0.8,23-9.7,45.3-25,62.6C455.2,367.2,427.4,379.7,398.3,379.7z M356.3,345.7h42
		c19.4,0,37.9-8.3,50.8-22.8c10.3-11.6,16-25.8,16.5-41.2v0c0.6-17-5.3-33.3-16.4-46c-12.6-14.4-30.8-22.6-49.9-22.6h-43V345.7z"/>
</g>
</svg>
