<?xml version="1.0" encoding="utf-8"?>
<!-- Generator: Adobe Illustrator 19.0.0, SVG Export Plug-In . SVG Version: 6.00 Build 0)  -->
<svg version="1.1" id="Layer_1" xmlns="http://www.w3.org/2000/svg" xmlns:xlink="http://www.w3.org/1999/xlink" x="0px" y="0px"
	 viewBox="0 0 101.6 168.5" style="enable-background:new 0 0 101.6 168.5;" xml:space="preserve">
<style type="text/css">
	.st0{fill:#4E4E4E;}
	.st1{fill:none;}
	.st2{fill:#41CD7C;}
	.st3{fill:#FFFFFF;}
	.st4{fill:none;stroke:#FFFFFF;stroke-width:2;stroke-miterlimit:10;}
</style>
<g id="XMLID_100_">
	<path id="XMLID_141_" class="st0" d="M101.4,117.3L101.4,117.3c-0.4-5.5-1.6-10.7-3.6-15.6c-1-2.5-2.2-4.9-3.6-7.2
		c-0.7-1.2-1.5-2.4-2.3-3.5c-1.7-2.3-3.6-4.5-5.7-6.5c-0.5-0.5-1.1-1.1-1.7-1.6c-0.8-0.7-1.5-1.3-2.3-2c-0.3-0.2-0.6-0.4-0.8-0.6
		c-0.3-0.2-0.5-0.4-0.8-0.6c-0.1-0.1-0.1-0.1-0.2-0.2c0,0,0.1-0.1,0.1-0.1c0.3-0.2,0.5-0.4,0.7-0.7c0.9-0.8,1.8-1.7,2.6-2.5
		c0.8-0.8,1.5-1.6,2.1-2.4c0.1-0.1,0.2-0.3,0.3-0.4c0.1-0.1,0.1-0.2,0.2-0.2c1.9-2.5,3.6-5.1,5-7.9c0.3-0.6,0.6-1.3,0.9-2v0
		c0.5-1.1,0.9-2.3,1.3-3.4c1.6-4.6,2.4-9.5,2.4-14.5C96,20.3,75.7,0,50.8,0C25.8,0,5.5,20.3,5.5,45.2c0,7,1.6,13.6,4.4,19.5v0
		c0.1,0.2,0.2,0.3,0.2,0.5c1.4,2.8,3.1,5.5,5,7.9c0.1,0.1,0.1,0.2,0.2,0.2c0.5,0.7,1.1,1.3,1.6,1.9c0.3,0.3,0.5,0.6,0.8,0.9
		c0.8,0.9,1.7,1.7,2.6,2.5c0.2,0.2,0.5,0.4,0.7,0.7c0,0,0.1,0.1,0.1,0.1c-0.1,0.1-0.3,0.2-0.4,0.3c-0.5,0.4-1,0.8-1.5,1.1
		c-0.5,0.3-0.9,0.7-1.3,1.1c-0.9,0.8-1.8,1.6-2.7,2.5c-2.1,2-4,4.2-5.7,6.5c-0.8,1.1-1.6,2.3-2.3,3.5c-1.2,1.9-2.2,3.9-3.1,6
		c-2.3,5.2-3.7,10.9-4.1,16.8v0c-0.1,1.1-0.2,2.3-0.2,3.5v24.5c0,0.2,0,0.5,0,0.7c0.1,3.5,0.7,6.9,1.7,10.1c0.8,2.3,1.7,4.5,2.9,6.5
		c0,0,0,0,0,0c0.5,0.8,1,1.6,1.5,2.4c0.5,0.8,1.1,1.5,1.7,2.2c0.1,0.1,0.2,0.2,0.3,0.3c1.9,1.8,5.2,0.9,5.8-1.7l0-0.1l3.1-28.6
		v-16.2c0-0.7,0-1.4,0.1-2c0-1,0.1-1.9,0.3-2.9c0.7-5.3,2.7-10.2,5.7-14.4c0.5-0.7,1-1.4,1.6-2.1c0.6-0.7,1.2-1.5,1.9-2.1
		c0.2-0.2,0.4-0.4,0.6-0.6c1.2-1.2,2.5-2.3,3.8-3.2c2.5-1.8,5.3-3.3,8.3-4.4c0.4-0.1,0.8-0.3,1.2-0.4c-0.2-0.3-0.4-0.5-0.6-0.8
		c-0.2-0.4-0.4-0.7-0.5-1.1c-0.2-0.5-0.2-0.9-0.2-1.4c0-2.7,2.4-5.1,6-6.4c1.6-0.6,3.5-1,5.5-1c0,0,0.1,0,0.1,0c0.2,0,0.3,0,0.5,0
		c0.1,0,0.2,0,0.4,0c2.1,0,4.1,0.4,5.8,1c3.6,1.3,6,3.7,6,6.4c0,0.5-0.1,1-0.2,1.4c-0.1,0.4-0.3,0.8-0.5,1.1
		c-0.2,0.4-0.5,0.8-0.9,1.2c0,0,0.1,0,0.1,0c3,1.1,5.8,2.5,8.3,4.4c1.4,1,2.6,2.1,3.8,3.2c0.4,0.4,0.8,0.8,1.3,1.3
		c0.5,0.5,0.9,1,1.3,1.5c0.6,0.7,1.1,1.4,1.6,2.1c3.1,4.4,5.1,9.7,5.8,15.3c0.1,0.7,0.1,1.3,0.2,2c0.1,0.7,0.1,1.3,0.1,2v16.2
		l3.1,28.6l0,0.1c0.6,2.7,3.9,3.5,5.8,1.7c0.1-0.1,0.2-0.2,0.3-0.3c0.6-0.7,1.2-1.5,1.7-2.2c0.5-0.8,1.1-1.6,1.5-2.4c0,0,0,0,0,0
		c1.2-2,2.2-4.2,2.9-6.5c1.1-3.2,1.7-6.6,1.7-10.1c0-0.2,0-0.5,0-0.7v-24.5C101.6,119.7,101.5,118.5,101.4,117.3z M23.4,39.1
		c0.1-0.5,0.2-0.9,0.3-1.4h0C27,25.8,37.9,17.1,50.8,17.1c12.6,0,23.2,8.2,26.8,19.6c0.1,0.4,0.3,0.9,0.4,1.3
		c0.6,2.3,0.9,4.7,0.9,7.1c0,5-1.3,9.7-3.6,13.8c-1,1.9-2.3,3.6-3.8,5.2c-4.1,4.5-9.7,7.6-16,8.7c-1.5,0.3-3.1,0.4-4.7,0.4
		c-1.6,0-3.2-0.1-4.7-0.4c-6.3-1-11.9-4.2-16-8.7c-1.5-1.6-2.7-3.3-3.8-5.2c-2.3-4.1-3.6-8.8-3.6-13.8
		C22.7,43.1,22.9,41.1,23.4,39.1z"/>
	<path id="XMLID_109_" class="st0" d="M50.9,77.9c-2.5,0.2-4.7,1.8-6.3,4.3c-0.5,0.8-1,1.7-1.3,2.7c-0.2,0.5-0.3,1-0.3,1.5
		c0,0.3,0,0.6,0,0.8c0,0.2,0,0.5,0.1,0.7c-0.3,0.1-0.5,0.1-0.8,0.2c-0.2,0.1-0.5,0.1-0.7,0.2c-0.3,0.1-0.6,0.2-0.8,0.3
		c-0.2-0.3-0.4-0.5-0.6-0.8c-0.2-0.4-0.4-0.7-0.5-1.1c-0.2-0.5-0.2-0.9-0.2-1.4c0-2.7,2.4-5.1,6-6.4C47,78.3,48.9,78,50.9,77.9z"/>
	<path id="XMLID_105_" class="st0" d="M63.6,85.3c0,0.5-0.1,1-0.2,1.4c-0.1,0.4-0.3,0.8-0.5,1.1c-0.2,0.4-0.5,0.8-0.9,1.2
		c-0.2-0.1-0.4-0.1-0.6-0.2c-0.5-0.2-1-0.3-1.4-0.4h0c0,0,0,0,0,0c0.1-0.3,0.1-0.7,0.2-1c0-0.3,0-0.5,0-0.8c0-0.5-0.1-1-0.3-1.5
		c-0.4-1-0.8-1.9-1.3-2.7c-1.6-2.6-3.8-4.1-6.3-4.3c-0.1,0-0.2,0-0.3,0c2.1,0,4.1,0.4,5.8,1C61.2,80.2,63.6,82.6,63.6,85.3z"/>
</g>
<line id="XMLID_124_" class="st1" x1="74" y1="138.1" x2="66.6" y2="138.1"/>
<line id="XMLID_119_" class="st1" x1="35" y1="138.1" x2="25.8" y2="138.1"/>
<path id="XMLID_76_" class="st2" d="M43.7,95.8"/>
<path id="XMLID_126_" class="st3" d="M61,121.1c0,0.6,0,1.2-0.1,1.8l-1.5,4.5c-2.4,3-5.4,4.8-8.7,4.8c-3.3,0-6.3-1.8-8.8-4.9
	l-1.4-4.2c-0.1-0.7-0.1-1.3-0.1-2c0-0.3,0-0.7,0-1l2.4-8.5l2.9-10.3h0.1c0,0,3,1.3,4.9,1.3s4.9-1.3,4.9-1.3h0.1l2.9,10.3L61,120
	C61,120.4,61,120.7,61,121.1z"/>
<polyline id="XMLID_117_" class="st1" points="63.6,109.4 58,109.4 43.6,109.4 39.4,109.4 "/>
<path id="XMLID_135_" class="st3" d="M63.6,109.9c0,14.9-5.7,27-12.8,27S38,124.8,38,109.9c0-3.1,0.3-6.1,0.7-8.9
	c0.1-0.8,0.3-1.5,0.4-2.3c0.4-2,1-3.8,1.6-5.5c0.7-2,1.6-3.7,2.6-5.2c1.4-2.2,3.1-3.7,4.9-4.5c0,0,0,0,0,0c0.6-0.3,1.2-0.4,1.8-0.5
	c0.2,0,0.5,0,0.7,0c0.2,0,0.5,0,0.7,0c0.6,0.1,1.3,0.2,1.9,0.5c0,0,0,0,0,0c1.8,0.8,3.4,2.3,4.9,4.5c1,1.5,1.8,3.2,2.6,5.2
	c0.6,1.7,1.2,3.5,1.6,5.5c0.2,0.8,0.3,1.5,0.4,2.3C63.3,103.8,63.6,106.8,63.6,109.9z"/>
<path id="XMLID_115_" class="st0" d="M61.7,120.3c0,0.8,0,1.5-0.1,2.2l-1.5,5.8l-1.4,5.3l-7.3,28.1l-5.3-20.4l-1.7-6.6L61.7,120.3z"
	/>
<path id="XMLID_101_" class="st0" d="M61.7,120.3l-17.3,14.3l-0.3-1.3l-1.4-5.2l-1.4-5.3c-0.1-0.8-0.1-1.7-0.1-2.6
	c0-0.4,0-0.9,0-1.3l2.4-10.9L46.5,95h0.1c0,0,3,1.6,4.9,1.6s4.9-1.6,4.9-1.6h0.1l1.3,5.8l1.8,8.1l2.2,10
	C61.7,119.4,61.7,119.9,61.7,120.3z"/>
<path id="XMLID_99_" class="st3" d="M58.5,86.6c0,0.5,0,0.9-0.1,1.4c0,0.2-0.1,0.4-0.2,0.6l-1.1,2.7c-0.2,0.1-0.5,0.2-0.8,0.3
	c-1.5,0.5-3.1,0.8-4.9,0.8s-3.4-0.3-4.9-0.8c-0.3-0.1-0.5-0.2-0.8-0.3l-1.1-2.7c-0.1-0.3-0.2-0.6-0.3-0.9c-0.1-0.4-0.1-0.7,0-1.1
	c0-0.4,0.1-0.8,0.3-1.2c0.3-0.9,0.7-1.7,1.1-2.4c1.3-2.1,3.2-3.5,5.2-3.6c0.2,0,0.3,0,0.5,0c0.2,0,0.3,0,0.5,0
	c2,0.2,3.9,1.5,5.2,3.6c0.5,0.7,0.8,1.5,1.2,2.4C58.4,85.8,58.5,86.2,58.5,86.6z"/>
<path id="XMLID_128_" class="st2" d="M59.9,88.3L59.9,88.3C59.9,88.3,59.9,88.3,59.9,88.3C59.9,88.3,59.9,88.3,59.9,88.3z"/>
<path id="XMLID_142_" class="st3" d="M57,78.6c-1.5-0.6-3.3-1-5.2-1c-0.1,0-0.2,0-0.3,0c-0.1,0-0.3,0-0.4,0c-1.9,0-3.6,0.4-5.1,1
	c-3.2,1.3-5.4,3.6-5.4,6.4c0,1.1,0.3,2.1,0.9,3c0,0.1,0,0.3,0,0.4c0.1,0.5,0.2,0.9,0.4,1.3l0.1,0.1l1.4,3.4l0,0.1
	c0.4,0.9,0.9,1.7,1.6,2.2c1.8,1.5,4.1,2.4,6.4,2.4c2.4,0,4.6-0.8,6.4-2.4c0.7-0.6,1.2-1.3,1.6-2.2l0-0.1v0l1.4-3.4l0-0.1
	c0.1-0.3,0.2-0.6,0.3-1c0.1-0.3,0.1-0.5,0.2-0.8c0.6-0.9,0.9-1.9,0.9-3C62.4,82.3,60.2,79.9,57,78.6z M56.9,91.9l-0.2,0.4l0,0
	c-0.2,0.4-0.4,0.8-0.7,1c-1.3,1.1-2.9,1.7-4.5,1.7c-1.6,0-3.2-0.6-4.5-1.7c-0.3-0.3-0.6-0.6-0.8-1l0,0l-0.1-0.4l-0.2-0.6l-1.1-2.7
	c-0.1-0.3-0.2-0.6-0.3-0.9c-0.1-0.4-0.1-0.7,0-1.1c0-0.4,0.1-0.8,0.3-1.2c0.3-0.9,0.7-1.7,1.1-2.4c1.3-2.1,3.2-3.5,5.2-3.6
	c0.2,0,0.3,0,0.5,0c0.2,0,0.3,0,0.5,0c2,0.2,3.9,1.5,5.2,3.6c0.5,0.7,0.8,1.5,1.2,2.4c0.1,0.4,0.2,0.8,0.3,1.1c0,0.5,0,0.9-0.1,1.4
	c0,0.2-0.1,0.4-0.2,0.6l-1.1,2.7L56.9,91.9z"/>
<path id="XMLID_80_" class="st4" d="M51.5,77.9"/>
<path id="XMLID_129_" class="st0" d="M59.9,88.3C59.9,88.3,59.9,88.3,59.9,88.3L59.9,88.3c-0.1,0.3-0.2,0.6-0.3,0.9l-0.8,1.9
	l-0.7,1.7c-0.3,0.7-0.7,1.2-1.2,1.6c-1.6,1.3-3.5,2-5.5,2c-2,0-3.9-0.7-5.5-2.1c-0.5-0.4-0.9-1-1.2-1.6l-0.7-1.7l-0.8-2
	c-0.1-0.3-0.2-0.5-0.3-0.8c0-0.1-0.1-0.2-0.1-0.3c0-0.2-0.1-0.5-0.1-0.7c0-0.3,0-0.5,0-0.8c0-0.5,0.2-1.1,0.3-1.5
	c0.3-1,0.8-1.8,1.3-2.7c1.6-2.6,3.9-4.1,6.3-4.3c0,0,0.1,0,0.1,0c0.2,0,0.3,0,0.5,0c0.1,0,0.2,0,0.4,0c0.1,0,0.2,0,0.3,0
	c2.4,0.2,4.7,1.8,6.3,4.3c0.5,0.8,0.9,1.7,1.3,2.7c0.2,0.5,0.3,1,0.3,1.5c0,0.3,0,0.5,0,0.8C60,87.7,60,88,59.9,88.3z"/>
</svg>
