<?xml version="1.0" encoding="utf-8"?>
<!-- Generator: Adobe Illustrator 19.0.0, SVG Export Plug-In . SVG Version: 6.00 Build 0)  -->
<svg version="1.1" id="Layer_1" xmlns="http://www.w3.org/2000/svg" xmlns:xlink="http://www.w3.org/1999/xlink" x="0px" y="0px"
	 viewBox="0 0 314.2 200.7" style="enable-background:new 0 0 314.2 200.7;" xml:space="preserve">
<style type="text/css">
	.st0{opacity:0.77;}
	.st1{fill:#FFFFFF;}
</style>
<g id="XMLID_24_" class="st0">
	<path id="XMLID_19_" class="st1" d="M309.2,171.6L299,161.5l-10.2-10.2c4.5-7.7,8-15.9,10.3-24.5c2.3-8.6,3.6-17.5,3.6-26.4
		c0-27.7-11.3-52.7-29.4-70.9C255.1,11.3,230,0,202.3,0c-14.4,0-28.5,3.1-41.4,8.9c-12.9,5.8-24.5,14.4-34,25.2l-4.9,5.6l-4.9,5.6
		L122,51l4.9,5.6c5.6,6.4,9.8,13.6,12.6,21.4c2.8,7.8,4.1,16.1,3.8,24.6c-0.3,7.7-1.8,15.1-4.6,22s-6.8,13.4-11.9,19.2l-5,5.6
		l-5,5.6l4.9,5.6l4.9,5.6c9.5,10.9,21.2,19.5,34.1,25.4c12.9,5.9,27,9,41.5,9c11.9,0,23.5-2.1,34.4-6.1c10.9-4,21-9.8,30-17.3
		l9.2,9.2l9.2,9.2c1.7,1.7,3.6,2.9,5.6,3.7c2,0.8,4.2,1.2,6.4,1.2c2.2,0,4.4-0.4,6.4-1.2c2-0.8,4-2.1,5.6-3.7c3.3-3.3,5-7.7,5-12
		S312.5,175,309.2,171.6z M202.3,166.7c-7.3,0-14.5-1.2-21.3-3.5c-6.8-2.3-13.2-5.7-18.9-10c4.6-7.4,8.3-15.3,10.8-23.6
		s4-16.9,4.3-25.7c0.3-10-0.8-19.9-3.3-29.4c-2.5-9.5-6.4-18.5-11.7-26.9c5.7-4.3,12.1-7.7,18.8-10S195,34,202.3,34
		c18.3,0,34.9,7.4,46.9,19.5s19.5,28.6,19.5,46.9c0,7.7-1.3,15.2-3.9,22.4s-6.3,13.8-11.2,19.7c0,0,0,0,0,0c0,0,0,0,0,0
		c-6.3,7.7-14.2,13.7-22.9,17.8C221.9,164.5,212.3,166.7,202.3,166.7z"/>
</g>
<g id="XMLID_26_">
	<path id="XMLID_4_" class="st1" d="M76,200.7H49H22c-6.1,0-11.6-2.5-15.5-6.5S0,184.7,0,178.7v-78.3V22c0-6.1,2.5-11.6,6.5-15.5
		S15.9,0,22,0h27.5H77c14.4,0,28.5,3.1,41.4,8.9s24.5,14.4,34,25.2c8.4,9.6,14.9,20.6,19.1,32.4s6.2,24.4,5.8,37.2l0,0l0,0
		c-0.4,11.5-2.8,22.8-7,33.4s-10.3,20.5-18,29.2c-9.7,10.9-21.4,19.5-34.4,25.3S90.6,200.7,76,200.7z M34,166.7h21h21
		c9.7,0,19.2-2.1,27.9-6s16.5-9.6,22.9-16.9c5.1-5.8,9.1-12.3,11.9-19.2s4.3-14.3,4.6-22v0v0c0.3-8.5-1-16.8-3.8-24.6
		s-7-15.1-12.6-21.4c-6.3-7.2-14-12.8-22.5-16.7S86.6,34,77,34H55.5H34v66.3V166.7z"/>
</g>
</svg>
