<?xml version="1.0" encoding="utf-8"?>
<!-- Generator: Adobe Illustrator 19.0.0, SVG Export Plug-In . SVG Version: 6.00 Build 0)  -->
<svg version="1.1" id="Layer_1" xmlns="http://www.w3.org/2000/svg" xmlns:xlink="http://www.w3.org/1999/xlink" x="0px" y="0px"
	 viewBox="0 0 120.7 196.1" style="enable-background:new 0 0 120.7 196.1;" xml:space="preserve">
<style type="text/css">
	.st0{fill:#41CD7C;}
	.st1{fill:#4E4E4E;}
</style>
<path id="XMLID_137_" class="st0" d="M120.5,150.7c0-22.8-2.2-43-19.1-55.7c-1.4-1-2.8-2-4.3-2.9c10-9.7,16.3-23.4,16.3-38.5
	C113.4,24,89.4,0,59.8,0C30.2,0,6.2,24,6.2,53.6c0,15.1,6.2,28.7,16.3,38.5C21,93,19.6,94,18.2,95c-17,12.7-17.3,32.9-17.3,55.7
	c0,17.3-4.2,33.2,6.3,45.4c3-6.9,12-35.3,12-45.4c0-21.3,5.7-39.3,24.7-45.9c0.4-0.1,0.8-0.3,1.2-0.4c0.3-1.7,0.7-3.3,1.3-4.8
	c0.2-0.5,0.4-1,0.7-1.6c0.4-0.8,0.8-1.5,1.3-2.3c0.6-0.9,1.3-1.8,2-2.5c0.7-0.8,1.4-1.6,2.2-2.1l0.7-0.5l0.3,0.1
	c0.2-0.1,0.4-0.2,0.6-0.3c0.4-0.2,0.8-0.4,1.2-0.5L46,84.4c-0.9-0.4-1.8-0.8-2.7-1.3C32.6,77.3,25.4,66,25.4,52.9
	c0-19,15.4-34.4,34.4-34.4c19,0,34.4,15.4,34.4,34.4c0,13-7.3,24.4-17.9,30.2c-0.8,0.5-1.7,0.9-2.6,1.3l-9.8,5.8
	c0.2,0.1,0.4,0.2,0.6,0.3c0.2,0.1,0.4,0.2,0.6,0.3l0.3-0.1l0.7,0.5c0.8,0.6,1.6,1.3,2.3,2.2c0,0,0,0,0,0c0.7,0.7,1.3,1.5,1.9,2.4
	c0.4,0.7,0.9,1.4,1.2,2.2c0.3,0.5,0.5,1.1,0.7,1.6c0.5,1.4,1,2.9,1.2,4.4c0.8,0.2,1.5,0.5,2.3,0.7c19,6.6,26.5,24.6,26.5,45.9
	c0,10.1,7.3,38.5,10.3,45.4C123,183.9,120.5,168,120.5,150.7z"/>
<path id="XMLID_23_" class="st0" d="M64.8,115.8l-13.9,7.8l7.5-20.4c0.4-1,1.4-1,1.8,0L64.8,115.8z"/>
<path id="XMLID_22_" class="st0" d="M68.6,126.1l-18.7,10.4l-1.2-6.4c0-0.3,0-0.5,0.1-0.8l1.1-2.9l15.6-8.7L68.6,126.1z"/>
<path id="XMLID_21_" class="st0" d="M69.6,130.2l-1.8,10.6l0,0.1l-15.6,8.7l-1.6-8.8l0-0.1l18.9-10.6
	C69.5,130,69.7,130.1,69.6,130.2z"/>
<path id="XMLID_20_" class="st0" d="M67.4,143.4l-7.2,39.7c-0.2,1.3-1.7,1.3-2,0l-5.8-31.4l0.1-0.1L67.4,143.4z"/>
<path id="XMLID_131_" class="st0" d="M70.2,99.2l-5.1,4.9l-3.8,4.9c-0.5,0.7-1.3,1-2.1,1c-0.8,0-1.5-0.3-2.1-1l-3.7-4.8l-5.2-5
	c1.4-2.1,3.2-5.3,5.2-6.6c1.5,0.5,3.5,0.7,5.8,0.7c2.2,0,4.3-0.3,5.8-0.7C67,94,68.8,97.1,70.2,99.2z"/>
<path id="XMLID_101_" class="st0" d="M49.6,90.6h4.5c-2.3,1.1-4.3,2.9-5.8,5.3l-0.8-1.1C46.1,93.1,47.4,90.6,49.6,90.6z"/>
<path id="XMLID_98_" class="st0" d="M71,94.8l-0.8,1.1c-1.6-2.4-3.6-4.2-5.8-5.3h4.5C71.1,90.6,72.4,93.1,71,94.8z"/>
<path id="XMLID_16_" class="st1" d="M59.8,91.5"/>
</svg>
