<?xml version="1.0" encoding="utf-8"?>
<!-- Generator: Adobe Illustrator 19.0.0, SVG Export Plug-In . SVG Version: 6.00 Build 0)  -->
<svg version="1.1" id="Layer_1" xmlns="http://www.w3.org/2000/svg" xmlns:xlink="http://www.w3.org/1999/xlink" x="0px" y="0px"
	 viewBox="0 0 330.2 296" style="enable-background:new 0 0 330.2 296;" xml:space="preserve">
<style type="text/css">
	.st0{fill:#FFFFFF;stroke:#000000;stroke-miterlimit:10;}
	.st1{fill:none;}
	.st2{fill:#FFFFFF;}
</style>
<rect id="XMLID_278_" x="62.8" y="198.9" transform="matrix(0.7071 0.7071 -0.7071 0.7071 179.8544 -21.4195)" width="106" height="15"/>
<path id="XMLID_281_" class="st0" d="M143.4,254.8"/>
<path id="XMLID_338_" class="st1" d="M83.9,164.2"/>
<path id="XMLID_339_" d="M68.9,179.4"/>
<path id="XMLID_1_" class="st0" d="M149.7,176.6"/>
<path id="XMLID_5_" d="M68.1,179.2l75,75l-28.4,28.4C89.2,307.9,51.1,298.4,0,247.2"/>
<g id="XMLID_272_">
	<path id="XMLID_20_" d="M83,160.1l2.5-2.5c9.6-9.6,22.8-14.9,37.1-14.9c15.3,0,29.7,6,40.7,16.9c10.6,10.6,16.6,24.6,16.9,39.4
		c0.3,14.8-5,28.4-14.9,38.4l-2.5,2.5L83,160.1z"/>
	<path id="XMLID_17_" class="st2" d="M122.5,146.2c13.6,0,27.6,5.3,38.2,15.9c20.7,20.7,21.1,53.7,2,72.8l-74.8-74.8
		C97.2,150.9,109.7,146.2,122.5,146.2 M122.2,139.2v7v-6.7h0.3c-15.2,0-29.2,5.5-39.5,15.8l-4.9,4.9l4.9,4.9l74.8,74.8l4.9,4.9
		l4.9-5c10.6-10.6,16.3-25.2,15.9-40.9c-0.4-15.7-6.9-30.5-18.1-41.8C153.9,145.6,139.2,139.2,122.2,139.2L122.2,139.2z"/>
</g>
<g id="XMLID_4_">
	<path id="XMLID_6_" d="M132,198.9l-8.9-9.3c-3.9-4.1-3.8-10.5,0.3-14.4L235.1,68.7c4.1-3.9,6.5,0.1,10.4,4.2l8.9,9.3
		c3.9,4.1,7.9,6.7,3.8,10.5L146.5,199.2C142.4,203.1,135.9,203,132,198.9z"/>
</g>
<path id="XMLID_2_" d="M327.1,19.6L311.5,3.4c-4.4-4.6-11.8-4.5-16.1,0.2l-43.2,47.6c-3.9,4.3-3.8,10.8,0.2,14.9l9.4,9.8
	c4,4.2,10.6,4.5,15,0.8l49.3-41.2C331.1,31.6,331.5,24.2,327.1,19.6z"/>
</svg>
