<?xml version="1.0" encoding="utf-8"?>
<!-- Generator: Adobe Illustrator 19.0.0, SVG Export Plug-In . SVG Version: 6.00 Build 0)  -->
<svg version="1.1" id="Layer_1" xmlns="http://www.w3.org/2000/svg" xmlns:xlink="http://www.w3.org/1999/xlink" x="0px" y="0px"
	 viewBox="0 0 204.9 195.5" style="enable-background:new 0 0 204.9 195.5;" xml:space="preserve">
<style type="text/css">
	.st0{fill:#4E4E4E;}
</style>
<path id="XMLID_55_" class="st0" d="M97.2,94.3L97.2,94.3c-0.8-1-1.6-1.2-2.4-1.8c-0.8-0.6-1.6-1-2.4-1.5c1.3-1.3,2.5-2.8,3.5-4.3
	c0,0,0,0,0,0c3.3-5,5.1-11,4.9-17.4c-0.3-9.8-5.2-18.3-12.7-23.6c0,0-0.1,0-0.1-0.1c-5.1-3.6-11.4-5.6-18.2-5.4
	c-12.7,0.4-23.3,8.6-27.3,19.9c-1.2,3.4-1.8,7.2-1.7,11c0.2,5.2,1.6,10.1,4.1,14.3c1.5,2.6,3.4,4.9,5.6,6.9
	c-0.2,0.2-0.5,0.3-0.7,0.5c-0.6,0.4-1.1,0.8-1.6,1.2c-2.1,1.7-3.8,3.6-5,5.7c-4.1,7-4,15.9-3.7,25.7c0.3,9.7-1.8,18.7,4.3,25.3
	c1.5-3.9,6.1-20,5.9-25.6c-0.1-3.4,0.1-6.7,0.6-9.7c0.8-4.7,2.5-8.8,5.5-11.9c1.8-1.9,4.1-3.4,6.9-4.5c2.8-1.1,5.7-1.7,8.9-1.8
	c3.1-0.1,6.1,0.3,9,1.2c3.3,1,6,2.7,8.2,4.9c4.9,4.8,7.1,12.1,7.4,20.4c0.1,2.4,0.9,6.6,2.1,11c0.9-8.3,3.1-15.8,7.5-21.5
	C104.7,105.8,102.5,99.3,97.2,94.3z M80.5,86.5c-2.7,1.6-5.8,2.5-9.1,2.6c-3.3,0.1-6.5-0.6-9.3-2.1c-5.7-2.9-9.8-8.5-10.5-15.2
	c0-0.5-0.1-0.9-0.1-1.4c-0.3-10.6,8-19.5,18.7-19.9c6.6-0.2,12.5,2.9,16.2,7.9c0.1,0.1,0.1,0.2,0.2,0.3c2.1,3,3.4,6.5,3.5,10.4
	c0.1,1.9-0.2,3.8-0.6,5.5c0,0.1,0,0.1,0,0.2C88,79.8,84.8,84,80.5,86.5z"/>
<path id="XMLID_51_" class="st0" d="M49.9,92.9c-1.3-1.3-2.9-2.5-4.7-3.4c-0.7-0.3-1.4-0.7-2.1-0.9c0.7-1,1.3-2,1.9-3.1
	c2-4,2.9-8.5,2.4-13.2c-0.1-0.6-0.1-1.2-0.2-1.8c-0.7-3.9-2.3-7.4-4.6-10.4c-5.2-6.7-14-10.4-23-8.8C6.6,53.7-1.9,66,0.4,79
	c1.2,6.6,5,12,10.1,15.5c-0.6,0.5-1.1,1.1-1.6,1.6c-6.4,6.9-5,15.7-3.2,25.6c1.4,7.6,0.8,14.8,6.3,19.3c0.7-3.2,2.5-16.3,1.7-20.7
	c-1.7-9.3-0.6-17.6,7.2-22c2-1.2,4.3-2,6.7-2.4c2.4-0.4,4.8-0.5,7.1-0.1c3.4,0.5,6.2,2,8.5,4.1c3.5,3.3,5.7,8.2,6.7,13.8
	c0.1,0.5,0.2,1.2,0.5,1.9c0.8-4.7,2.5-8.8,5.5-11.9C54.6,99.5,52.8,95.7,49.9,92.9z M33.3,86.3c-1.9,1.6-4.2,2.7-6.9,3.1
	c-2.6,0.5-5.2,0.2-7.5-0.5c-5.1-1.7-9.2-6.1-10.2-11.8c-1.5-8.3,4-16.2,12.3-17.7c8.3-1.5,16.2,4,17.7,12.3
	C39.7,77.4,37.5,82.9,33.3,86.3z"/>
<path id="XMLID_47_" class="st0" d="M204.6,150.3c0-22.7-2.2-42.9-19.1-55.6c-1.4-1-2.8-2-4.2-2.9c10-9.7,16.2-23.3,16.2-38.3
	c0-29.5-23.9-53.5-53.5-53.5c-24.6,0-45.2,16.6-51.4,39.3c0,0,0.1,0,0,0.1c-1.2,4.5-1.7,9.2-1.7,14.1v0.6c0,6.3,1.1,12.4,3.2,18
	c0,0.1,0,0.1,0,0.2c1.8,4.8,4.2,9.3,7.2,13.3c0,0,0,0,0,0c1.7,2.2,3.5,4.2,5.4,6.1c-1.3,0.9-2.7,1.6-3.9,2.6h0
	c-0.1,0-0.2,0.3-0.3,0.3c-3.8,2.9-6.9,6.2-9.2,9.8c-7.9,12.2-8.1,28.3-8.1,45.8c0,17.3-4.2,33.1,6.2,45.3c3-6.8,12-35.2,12-45.2
	c0-3.6,0.2-7.1,0.5-10.4c1-9.3,3.5-17.6,8.4-24.1c3.7-5,8.8-8.9,15.7-11.2c5-1.7,10.3-2.7,15.9-2.7c5.6,0,10.9,0.9,15.9,2.7
	c18.9,6.6,26.4,24.6,26.4,45.8c0,10,7.3,38.4,10.3,45.2C207.1,183.4,204.6,167.6,204.6,150.3z M160.5,82.9
	c-4.9,2.7-10.5,4.2-16.4,4.2c-5.9,0-11.6-1.5-16.4-4.2c-10.7-5.8-17.9-17.1-17.9-30.1c0-18.9,15.4-34.3,34.3-34.3
	c19,0,34.3,15.4,34.3,34.3C178.4,65.8,171.2,77.1,160.5,82.9z"/>
</svg>
